<svg xmlns="http://www.w3.org/2000/svg" xmlns:xlink="http://www.w3.org/1999/xlink" width="500" zoomAndPan="magnify" viewBox="0 0 375 374.999991" height="500" preserveAspectRatio="xMidYMid meet" version="1.0"><defs><g/><clipPath id="5b35665d15"><path d="M 125 173 L 137.433594 173 L 137.433594 181 L 125 181 Z M 125 173 " clip-rule="nonzero"/></clipPath><clipPath id="6237c9e014"><path d="M 98.433594 149 L 137.433594 149 L 137.433594 203 L 98.433594 203 Z M 98.433594 149 " clip-rule="nonzero"/></clipPath><clipPath id="a3cd640c91"><path d="M 102 178 L 137.433594 178 L 137.433594 209 L 102 209 Z M 102 178 " clip-rule="nonzero"/></clipPath><clipPath id="a769906d5f"><path d="M 114 148.394531 L 122 148.394531 L 122 151 L 114 151 Z M 114 148.394531 " clip-rule="nonzero"/></clipPath><clipPath id="9378243c26"><path d="M 103 214 L 110 214 L 110 218.144531 L 103 218.144531 Z M 103 214 " clip-rule="nonzero"/></clipPath><clipPath id="096bec0b9d"><path d="M 126 214 L 133 214 L 133 218.144531 L 126 218.144531 Z M 126 214 " clip-rule="nonzero"/></clipPath></defs><g fill="#000000" fill-opacity="1"><g transform="translate(140.431752, 211.587013)"><g><path d="M 25.730469 -39.191406 C 22.976562 -32.371094 19.925781 -26.027344 16.875 -20.703125 C 16.753906 -20.523438 16.632812 -20.402344 16.515625 -20.402344 C 16.394531 -20.402344 16.273438 -20.523438 16.214844 -20.882812 C 14.898438 -26.984375 14.300781 -35.242188 13.941406 -38.953125 C 13.882812 -39.492188 13.460938 -39.96875 12.804688 -39.96875 C 11.90625 -39.96875 7.898438 -39.550781 6.101562 -39.132812 C 5.445312 -38.953125 5.144531 -38.355469 5.144531 -37.757812 C 5.144531 -35.0625 7.179688 -20.464844 9.035156 -16.035156 C 9.273438 -15.496094 9.574219 -14.839844 10.351562 -14.539062 L 11.609375 -14 C 12.027344 -13.820312 12.324219 -13.640625 12.324219 -13.285156 C 12.324219 -13.042969 12.148438 -12.804688 12.148438 -12.804688 C 9.574219 -9.15625 7.179688 -6.28125 5.921875 -4.847656 C 5.746094 -4.667969 5.625 -4.429688 5.625 -4.128906 C 5.625 -3.828125 5.746094 -3.53125 5.984375 -3.351562 C 7.417969 -2.332031 10.113281 -0.777344 11.96875 -0.121094 C 12.148438 -0.0585938 12.445312 0 12.625 0 C 13.105469 0 13.460938 -0.238281 13.761719 -0.597656 C 21.121094 -9.15625 30.214844 -25.25 33.808594 -34.882812 C 33.867188 -35.0625 33.925781 -35.363281 33.925781 -35.542969 C 33.925781 -35.902344 33.808594 -36.378906 33.386719 -36.738281 C 32.667969 -37.335938 27.703125 -39.910156 26.867188 -39.910156 C 26.386719 -39.910156 25.910156 -39.609375 25.730469 -39.191406 Z M 25.730469 -39.191406 "/></g></g></g><g fill="#000000" fill-opacity="1"><g transform="translate(173.694495, 211.587013)"><g><path d="M 1.675781 -9.691406 L -0.238281 -4.25 C -0.238281 -4.25 -0.300781 -4.070312 -0.300781 -3.769531 C -0.300781 -3.230469 0 -2.871094 0.417969 -2.574219 C 1.375 -1.914062 4.90625 -0.238281 5.863281 -0.238281 C 6.28125 -0.238281 6.703125 -0.480469 6.941406 -0.957031 C 7.839844 -3.050781 8.855469 -6.28125 9.992188 -8.796875 C 10.351562 -9.515625 10.652344 -9.8125 11.367188 -9.871094 C 12.085938 -9.933594 16.394531 -10.171875 19.085938 -10.171875 C 19.6875 -10.171875 20.042969 -9.8125 20.042969 -9.273438 C 20.042969 -8.316406 19.863281 -3.949219 19.863281 -2.574219 C 19.863281 -1.734375 20.222656 -1.195312 20.824219 -1.015625 C 21.898438 -0.65625 26.148438 0 27.164062 0 C 27.882812 0 28.300781 -0.417969 28.363281 -0.898438 C 28.660156 -3.589844 28.839844 -8.734375 28.839844 -14.421875 C 28.839844 -23.394531 28.542969 -33.507812 27.882812 -36.917969 C 27.761719 -37.636719 27.34375 -38.234375 26.6875 -38.535156 C 25.730469 -39.011719 21.480469 -40.507812 20.644531 -40.507812 C 20.164062 -40.507812 19.925781 -40.148438 19.863281 -39.730469 C 19.804688 -39.25 19.328125 -38.953125 18.847656 -38.953125 C 18.488281 -38.953125 17.410156 -39.371094 16.8125 -39.371094 C 16.394531 -39.371094 15.976562 -39.25 15.617188 -38.832031 C 12.925781 -35.660156 7.777344 -23.636719 4.605469 -17.351562 C 4.25 -16.632812 4.007812 -16.335938 3.171875 -16.15625 C 3.171875 -16.15625 2.394531 -15.976562 1.734375 -15.855469 C 1.078125 -15.738281 0.777344 -15.316406 0.777344 -14.71875 C 0.777344 -13.640625 1.796875 -11.128906 1.796875 -10.410156 C 1.796875 -10.171875 1.796875 -9.992188 1.675781 -9.691406 Z M 13.640625 -18.191406 C 15.917969 -23.214844 18.011719 -27.941406 19.507812 -31.175781 C 19.625 -31.414062 19.746094 -31.53125 19.863281 -31.53125 C 19.984375 -31.53125 20.105469 -31.355469 20.105469 -30.996094 C 20.164062 -29.078125 20.285156 -25.910156 20.285156 -22.617188 C 20.285156 -21.242188 20.285156 -19.863281 20.222656 -18.550781 C 20.105469 -17.710938 19.746094 -17.410156 19.085938 -17.410156 C 18.308594 -17.410156 15.855469 -17.351562 14.359375 -17.351562 C 13.761719 -17.351562 13.523438 -17.472656 13.523438 -17.832031 C 13.523438 -17.949219 13.640625 -18.191406 13.640625 -18.191406 Z M 13.640625 -18.191406 "/></g></g></g><g fill="#000000" fill-opacity="1"><g transform="translate(208.034081, 211.587013)"><g><path d="M 16.273438 0.179688 C 24.59375 0.179688 28.960938 -7.597656 30.457031 -11.429688 C 30.574219 -11.726562 30.695312 -12.265625 30.695312 -12.683594 C 30.695312 -13.761719 29.738281 -18.128906 29.078125 -19.6875 C 28.839844 -20.285156 28.300781 -20.761719 27.464844 -20.824219 C 26.625 -20.882812 25.667969 -20.882812 24.59375 -20.882812 C 21.839844 -20.882812 18.667969 -20.761719 16.992188 -20.523438 C 16.09375 -20.402344 15.796875 -20.042969 15.796875 -19.328125 C 15.796875 -18.191406 15.976562 -16.214844 16.214844 -14.839844 C 16.335938 -14.179688 16.992188 -13.820312 17.589844 -13.820312 C 18.550781 -13.820312 19.625 -13.820312 21.300781 -13.882812 C 21.71875 -13.882812 22.019531 -13.703125 22.019531 -13.402344 C 22.019531 -11.367188 18.070312 -7.539062 15.199219 -7.539062 C 12.804688 -7.539062 10.410156 -9.515625 10.410156 -15.199219 C 10.410156 -24.054688 15.378906 -32.730469 20.464844 -32.730469 C 22.976562 -32.730469 23.457031 -30.933594 23.457031 -29.257812 C 23.457031 -27.824219 23.15625 -26.566406 23.15625 -26.089844 C 23.15625 -25.308594 23.394531 -24.890625 24.113281 -24.890625 C 24.953125 -24.890625 28.480469 -25.011719 29.378906 -25.070312 C 30.039062 -25.128906 30.695312 -25.609375 30.875 -26.148438 C 31.234375 -27.34375 31.773438 -29.320312 31.773438 -30.996094 C 31.710938 -36.5 21.359375 -40.089844 17.710938 -40.089844 C 8.375 -40.089844 1.496094 -26.386719 1.496094 -14.957031 C 1.496094 -11.96875 2.453125 -8.796875 4.007812 -6.582031 C 6.582031 -2.871094 12.746094 0.179688 16.273438 0.179688 Z M 16.273438 0.179688 "/></g></g></g><g fill="#000000" fill-opacity="1"><g transform="translate(242.732611, 211.587013)"><g><path d="M 10.769531 -15.136719 C 10.890625 -15.675781 11.367188 -16.09375 12.027344 -16.15625 L 23.277344 -16.8125 C 23.933594 -16.8125 24.351562 -17.351562 24.351562 -17.890625 C 24.292969 -19.328125 23.992188 -21.660156 23.753906 -23.097656 C 23.636719 -23.636719 23.15625 -24.234375 22.257812 -24.234375 C 20.105469 -24.234375 13.941406 -23.8125 13.640625 -23.8125 C 13.105469 -23.8125 12.804688 -24.171875 12.804688 -24.59375 C 12.804688 -25.011719 13.703125 -29.199219 14.242188 -30.996094 C 14.421875 -31.59375 14.839844 -31.953125 15.4375 -32.011719 C 20.464844 -32.191406 26.148438 -32.492188 28.542969 -32.667969 C 29.078125 -32.730469 29.617188 -33.148438 29.617188 -33.6875 C 29.617188 -34.40625 29.378906 -37.757812 29.140625 -39.132812 C 29.019531 -39.851562 28.421875 -40.210938 27.644531 -40.269531 C 26.6875 -40.328125 25.371094 -40.386719 23.875 -40.386719 C 18.128906 -40.386719 10.113281 -39.851562 7.058594 -39.25 C 6.402344 -39.132812 6.042969 -38.652344 6.042969 -37.996094 C 6.042969 -37.457031 6.101562 -35.0625 6.101562 -34.464844 C 6.101562 -33.925781 6.101562 -33.746094 5.984375 -33.269531 C 4.488281 -27.582031 1.078125 -11.96875 1.078125 -6.882812 C 1.078125 -6.34375 1.195312 -5.863281 1.4375 -5.445312 C 2.273438 -3.769531 3.769531 -1.617188 4.90625 -0.539062 C 5.265625 -0.179688 5.863281 0.121094 6.523438 0.121094 C 7.539062 0.121094 20.164062 -0.898438 23.636719 -1.195312 C 24.171875 -1.257812 24.59375 -1.675781 24.59375 -2.214844 C 24.59375 -2.753906 23.636719 -6.523438 23.035156 -7.839844 C 22.796875 -8.375 22.199219 -8.914062 21.421875 -8.914062 C 18.847656 -8.914062 10.890625 -8.257812 10.472656 -8.257812 C 9.992188 -8.257812 9.753906 -8.496094 9.753906 -8.914062 C 9.753906 -9.753906 10.472656 -13.285156 10.769531 -15.136719 Z M 10.769531 -15.136719 "/></g></g></g><g fill="#000000" fill-opacity="1"><g transform="translate(272.824677, 211.587013)"><g><path d="M 21.660156 -15.199219 C 27.40625 -17.234375 31.773438 -21.601562 31.773438 -26.984375 C 31.773438 -32.132812 25.609375 -40.269531 17.890625 -40.269531 C 12.925781 -40.269531 8.914062 -39.070312 6.582031 -38.113281 C 6.164062 -37.933594 5.746094 -37.457031 5.746094 -36.917969 C 5.746094 -36.441406 6.042969 -35.183594 6.042969 -34.164062 C 6.042969 -33.925781 6.042969 -33.6875 5.921875 -33.207031 C 3.648438 -24.414062 0.835938 -9.871094 0.71875 -3.050781 C 0.777344 -2.453125 0.898438 -1.914062 1.796875 -1.554688 C 2.214844 -1.375 6.582031 0 7.839844 0 C 8.375 0 8.796875 -0.359375 8.914062 -0.957031 C 9.335938 -4.847656 9.933594 -8.976562 10.652344 -12.984375 C 10.710938 -13.582031 10.949219 -13.882812 11.546875 -13.882812 L 12.265625 -13.882812 C 12.746094 -13.882812 12.984375 -13.460938 13.222656 -12.863281 C 14.242188 -9.335938 16.875 -3.351562 20.164062 -0.539062 C 20.464844 -0.300781 20.941406 -0.0585938 21.480469 -0.0585938 C 21.839844 -0.0585938 22.078125 -0.179688 22.078125 -0.179688 C 23.8125 -0.957031 26.328125 -2.8125 27.644531 -4.070312 C 27.824219 -4.308594 27.941406 -4.546875 27.941406 -4.785156 C 27.941406 -5.085938 27.824219 -5.386719 27.582031 -5.625 C 25.609375 -7.359375 23.214844 -10.769531 21.179688 -13.941406 C 21.179688 -13.941406 21.003906 -14.179688 21.003906 -14.480469 C 21.003906 -14.839844 21.242188 -15.019531 21.660156 -15.199219 Z M 15.976562 -32.789062 C 16.453125 -32.847656 16.933594 -32.847656 17.410156 -32.847656 C 20.34375 -32.847656 22.855469 -31.53125 22.855469 -28.421875 C 22.855469 -24.832031 18.429688 -20.703125 12.863281 -20.703125 C 12.445312 -20.703125 12.207031 -20.882812 12.207031 -21.300781 C 12.207031 -21.898438 14.359375 -30.875 14.601562 -31.710938 C 14.777344 -32.3125 15.199219 -32.730469 15.976562 -32.789062 Z M 15.976562 -32.789062 "/></g></g></g><g fill="#000000" fill-opacity="1"><g transform="translate(56.514598, 208.826413)"><g><path d="M 5.40625 -4.984375 C 5.511719 -4.347656 5.726562 -3.710938 6.203125 -3.394531 C 8.164062 -2.015625 12.828125 0 15.109375 0 C 15.585938 0 16.273438 -0.265625 16.484375 -0.6875 C 19.402344 -5.246094 27.40625 -25.496094 29.738281 -31.117188 C 29.792969 -31.277344 29.84375 -31.539062 29.84375 -31.699219 C 29.84375 -32.019531 29.6875 -32.390625 29.421875 -32.601562 C 28.625 -33.238281 24.648438 -35.25 23.695312 -35.25 C 23.269531 -35.25 22.898438 -35.039062 22.6875 -34.5625 C 21.097656 -31.277344 15.742188 -16.644531 12.933594 -9.066406 C 12.828125 -8.800781 12.777344 -8.695312 12.667969 -8.695312 C 12.5625 -8.695312 12.511719 -8.800781 12.511719 -9.066406 C 12.296875 -12.777344 12.246094 -16.113281 12.246094 -19.082031 C 12.246094 -24.332031 12.511719 -28.464844 12.828125 -31.804688 C 12.828125 -31.804688 12.882812 -32.546875 12.882812 -32.972656 C 12.882812 -33.609375 12.457031 -33.925781 11.925781 -34.136719 C 10.921875 -34.507812 7.527344 -35.199219 6.308594 -35.199219 C 5.726562 -35.199219 5.300781 -34.828125 5.195312 -34.296875 C 4.824219 -31.910156 4.558594 -26.558594 4.558594 -20.726562 C 4.558594 -15.214844 4.824219 -9.277344 5.40625 -4.984375 Z M 5.40625 -4.984375 "/></g></g></g><g clip-path="url(#5b35665d15)"><path fill="#ff914d" d="M 137.585938 180.414062 L 137.585938 174.785156 C 136.246094 174.847656 134.894531 175.035156 133.542969 175.378906 L 132.03125 173.445312 L 132.464844 175.679688 C 131.597656 175.953125 130.714844 176.285156 129.835938 176.707031 L 128.359375 175.070312 L 128.878906 177.191406 C 127.828125 177.75 126.773438 178.417969 125.707031 179.210938 C 128.335938 177.648438 133.816406 175.332031 137.585938 180.414062 Z M 137.585938 180.414062 " fill-opacity="1" fill-rule="nonzero"/></g><g clip-path="url(#6237c9e014)"><path fill="#ff914d" d="M 124.453125 180.328125 C 123.066406 181.507812 121.886719 182.699219 120.90625 183.925781 L 118.910156 183.03125 L 120.25 184.78125 C 119.679688 185.574219 119.183594 186.367188 118.75 187.175781 L 116.628906 186.332031 L 118.253906 188.179688 C 117.484375 189.839844 116.988281 191.527344 116.679688 193.238281 C 112.609375 184.148438 119.59375 181.210938 123.078125 180.328125 C 121.761719 180.527344 120.535156 180.800781 119.40625 181.148438 L 118.265625 179.285156 L 118.390625 181.480469 C 117.472656 181.816406 116.617188 182.1875 115.808594 182.609375 L 114.558594 180.699219 L 114.855469 183.132812 C 113.28125 184.074219 111.917969 185.191406 110.714844 186.429688 C 112.636719 175.652344 121.425781 178.53125 124.144531 179.707031 C 124.132812 179.695312 124.132812 179.671875 124.117188 179.648438 C 122.792969 178.554688 121.476562 177.675781 120.175781 176.957031 L 120.707031 174.835938 L 119.21875 176.460938 C 118.339844 176.039062 117.472656 175.691406 116.605469 175.40625 L 117.0625 173.171875 L 115.539062 175.09375 C 113.765625 174.625 112.015625 174.425781 110.277344 174.425781 C 117.023438 169.851562 121.007812 173.285156 123.039062 176.484375 C 122.207031 172.789062 122.582031 167.53125 130.59375 165.992188 C 129.363281 167.222656 128.273438 168.597656 127.355469 170.183594 L 124.914062 169.910156 L 126.820312 171.164062 C 126.414062 171.984375 126.039062 172.839844 125.730469 173.769531 L 123.523438 173.683594 L 125.410156 174.796875 C 125 176.222656 124.6875 177.785156 124.527344 179.496094 C 124.539062 179.523438 124.539062 179.535156 124.550781 179.558594 C 125.59375 176.929688 129.4375 169.292969 137.585938 174.015625 L 137.585938 173.171875 C 137.585938 168.398438 133.71875 164.519531 128.929688 164.519531 L 124.09375 164.519531 L 124.09375 153.171875 C 124.09375 151.546875 123.089844 150.144531 121.675781 149.5625 C 121.675781 149.585938 121.675781 149.625 121.675781 149.648438 C 121.675781 150.09375 121.515625 150.492188 121.253906 150.816406 C 122.148438 151.222656 122.777344 152.128906 122.777344 153.171875 L 122.777344 164.492188 L 113.253906 164.492188 L 113.253906 153.171875 C 113.253906 152.117188 113.875 151.222656 114.78125 150.816406 C 114.519531 150.503906 114.359375 150.09375 114.359375 149.648438 C 114.359375 149.625 114.359375 149.585938 114.359375 149.5625 C 112.945312 150.144531 111.941406 151.546875 111.941406 153.171875 L 111.941406 164.492188 L 107.105469 164.492188 C 102.304688 164.492188 98.4375 168.363281 98.4375 173.148438 L 98.4375 202.574219 C 101.214844 200.046875 106.175781 196.835938 114.496094 194.898438 C 129.710938 191.390625 124.453125 180.328125 124.453125 180.328125 Z M 124.453125 180.328125 " fill-opacity="1" fill-rule="nonzero"/></g><path fill="#3c93d6" d="M 133.222656 207.945312 C 132.289062 207.300781 131.496094 206.742188 129.796875 206.742188 C 128.113281 206.742188 127.304688 207.300781 126.375 207.945312 C 125.410156 208.613281 124.304688 209.382812 122.195312 209.382812 C 120.089844 209.382812 118.996094 208.613281 118.015625 207.945312 C 117.085938 207.300781 116.292969 206.742188 114.59375 206.742188 C 112.90625 206.742188 112.101562 207.300781 111.171875 207.945312 C 110.203125 208.613281 109.101562 209.382812 106.992188 209.382812 C 104.886719 209.382812 103.792969 208.613281 102.8125 207.945312 C 102.355469 207.621094 101.933594 207.324219 101.414062 207.113281 C 100.917969 207.636719 100.484375 208.15625 100.097656 208.652344 C 101.761719 208.800781 102.714844 209.472656 103.570312 210.066406 C 104.5 210.710938 105.292969 211.269531 106.992188 211.269531 C 108.691406 211.269531 109.484375 210.710938 110.414062 210.066406 C 111.382812 209.394531 112.488281 208.628906 114.59375 208.628906 C 116.703125 208.628906 117.792969 209.394531 118.773438 210.066406 C 119.703125 210.710938 120.496094 211.269531 122.195312 211.269531 C 123.882812 211.269531 124.6875 210.710938 125.617188 210.066406 C 126.585938 209.394531 127.691406 208.628906 129.796875 208.628906 C 131.90625 208.628906 132.996094 209.394531 133.976562 210.066406 C 134.460938 210.402344 134.894531 210.710938 135.453125 210.933594 C 135.875 210.449219 136.246094 209.917969 136.542969 209.347656 C 134.980469 209.171875 134.050781 208.527344 133.222656 207.945312 Z M 133.222656 207.945312 " fill-opacity="1" fill-rule="nonzero"/><g clip-path="url(#a3cd640c91)"><path fill="#3c93d6" d="M 134.683594 181.34375 L 134.523438 178.902344 L 133.628906 181 C 132.761719 180.738281 131.84375 180.527344 130.878906 180.367188 L 130.578125 178.183594 L 129.8125 180.230469 C 128.335938 180.066406 126.734375 180.042969 125.023438 180.179688 C 126.265625 182.027344 132.15625 192.269531 115.671875 198.433594 C 109.3125 200.816406 105.15625 203.554688 102.441406 206.121094 C 102.875 206.359375 103.261719 206.617188 103.609375 206.867188 C 104.539062 207.511719 105.332031 208.070312 107.03125 208.070312 C 108.730469 208.070312 109.523438 207.511719 110.453125 206.867188 C 111.421875 206.195312 112.523438 205.429688 114.632812 205.429688 C 116.738281 205.429688 117.832031 206.195312 118.8125 206.867188 C 119.742188 207.511719 120.535156 208.070312 122.234375 208.070312 C 123.921875 208.070312 124.726562 207.511719 125.65625 206.867188 C 126.625 206.195312 127.726562 205.429688 129.835938 205.429688 C 131.945312 205.429688 133.035156 206.195312 134.015625 206.867188 C 134.882812 207.472656 135.652344 208.007812 137.152344 208.070312 C 137.460938 207.1875 137.625 206.234375 137.625 205.242188 L 137.625 182.671875 C 136.667969 182.164062 135.714844 181.71875 134.683594 181.34375 Z M 134.683594 181.34375 " fill-opacity="1" fill-rule="nonzero"/></g><path fill="#3c93d6" d="M 133.222656 211.144531 C 132.289062 210.5 131.496094 209.941406 129.796875 209.941406 C 128.113281 209.941406 127.304688 210.5 126.375 211.144531 C 125.410156 211.816406 124.304688 212.582031 122.195312 212.582031 C 120.089844 212.582031 118.996094 211.816406 118.015625 211.144531 C 117.085938 210.5 116.292969 209.941406 114.59375 209.941406 C 112.90625 209.941406 112.101562 210.5 111.171875 211.144531 C 110.203125 211.816406 109.101562 212.582031 106.992188 212.582031 C 104.886719 212.582031 103.792969 211.816406 102.8125 211.144531 C 101.957031 210.550781 101.214844 210.027344 99.789062 209.953125 C 101.324219 212.324219 104.003906 213.898438 107.042969 213.898438 L 128.878906 213.898438 C 130.976562 213.898438 132.898438 213.152344 134.386719 211.914062 C 133.988281 211.679688 133.59375 211.40625 133.222656 211.144531 Z M 133.222656 211.144531 " fill-opacity="1" fill-rule="nonzero"/><g clip-path="url(#a769906d5f)"><path fill="#ff914d" d="M 116.167969 150.914062 L 119.851562 150.914062 C 120.546875 150.914062 121.105469 150.355469 121.105469 149.660156 C 121.105469 148.96875 120.546875 148.410156 119.851562 148.410156 L 116.167969 148.410156 C 115.476562 148.410156 114.917969 148.96875 114.917969 149.660156 C 114.917969 150.34375 115.476562 150.914062 116.167969 150.914062 Z M 116.167969 150.914062 " fill-opacity="1" fill-rule="nonzero"/></g><g clip-path="url(#9378243c26)"><path fill="#3c93d6" d="M 103.96875 214.890625 L 103.96875 215.746094 C 103.96875 217.148438 105.09375 218.273438 106.496094 218.273438 C 107.898438 218.273438 109.027344 217.148438 109.027344 215.746094 L 109.027344 215.410156 L 107.09375 215.410156 C 106 215.398438 104.945312 215.226562 103.96875 214.890625 Z M 103.96875 214.890625 " fill-opacity="1" fill-rule="nonzero"/></g><g clip-path="url(#096bec0b9d)"><path fill="#3c93d6" d="M 126.996094 215.398438 L 126.996094 215.734375 C 126.996094 217.132812 128.125 218.261719 129.523438 218.261719 C 130.925781 218.261719 132.054688 217.132812 132.054688 215.734375 L 132.054688 214.878906 C 131.074219 215.210938 130.019531 215.386719 128.929688 215.386719 L 126.996094 215.386719 Z M 126.996094 215.398438 " fill-opacity="1" fill-rule="nonzero"/></g></svg>